<svg xmlns="http://www.w3.org/2000/svg" xmlns:xlink="http://www.w3.org/1999/xlink" viewBox="0,0,256,256" width="48px" height="48px" fill-rule="nonzero"><g fill="#18bfd9" fill-rule="nonzero" stroke="none" stroke-width="1" stroke-linecap="butt" stroke-linejoin="miter" stroke-miterlimit="10" stroke-dasharray="" stroke-dashoffset="0" font-family="none" font-weight="none" font-size="none" text-anchor="none" style="mix-blend-mode: normal"><g transform="scale(5.12,5.12)"><path d="M14,4.99023c-4.971,0 -9,4.029 -9,9v22c0,4.971 4.029,9 9,9h22c4.971,0 9,-4.029 9,-9v-22c0,-4.971 -4.029,-9 -9,-9zM25.96875,13c6.083,0 11.03125,5.05839 11.03125,11.27539c0,3.798 -1.92244,7.3675 -5.02344,9.4375c0.009,0.096 0.02344,0.18911 0.02344,0.28711c0,1.656 -1.344,3 -3,3c-1.093,0 -2.03945,-0.59084 -2.56445,-1.46484c-0.155,0.007 -0.3068,0.01758 -0.4668,0.01758c-1.028,0 -1.92609,-0.02798 -2.74609,-0.08398h-0.11719c-0.514,0.911 -1.48447,1.53125 -2.60547,1.53125c-1.575,0 -2.85256,-1.21777 -2.97656,-2.75977c-2.312,-1.016 -3.90308,-2.67187 -4.95508,-5.17187c-0.13,-0.309 -0.09711,-0.66045 0.08789,-0.93945c0.185,-0.279 0.49703,-0.44727 0.83203,-0.44727c1.055,0 1.44727,-0.9233 1.44727,-3.4043c0,-6.218 4.9502,-11.27734 11.0332,-11.27734zM25.96875,15c-4.98,0 -9.0332,4.16039 -9.0332,9.27539c0,1.231 0.00077,4.16147 -1.99024,5.10547c0.757,1.321 1.77133,2.23772 3.11133,2.88672c0.544,-0.764 1.43336,-1.26758 2.44336,-1.26758c1.478,0 2.69927,1.07152 2.94727,2.47852c0.752,0.05 1.57548,0.07422 2.52148,0.07422c0.222,0 0.43834,-0.00839 0.65234,-0.02539c1.406,-0.103 2.77666,-0.54625 3.97266,-1.28125c2.76,-1.693 4.40625,-4.6727 4.40625,-7.9707c0,-5.115 -4.05125,-9.27539 -9.03125,-9.27539zM23.92578,20c0.676,0 1.22266,0.54766 1.22266,1.22266c0,0.675 -0.54766,1.22266 -1.22266,1.22266c-0.675,0 -1.22266,-0.54766 -1.22266,-1.22266c0,-0.675 0.54666,-1.22266 1.22266,-1.22266zM30.77734,20c0.675,0 1.22266,0.54766 1.22266,1.22266c0,0.675 -0.54766,1.22266 -1.22266,1.22266c-0.675,0 -1.22266,-0.54766 -1.22266,-1.22266c0,-0.675 0.54666,-1.22266 1.22266,-1.22266zM23.74609,25.23438c0.38817,-0.00792 0.76019,0.21094 0.92969,0.58594c0.037,0.078 0.78877,1.61523 2.75977,1.61523c2.018,0 2.75081,-1.59142 2.75781,-1.60742c0.224,-0.505 0.81631,-0.73281 1.32031,-0.50781c0.505,0.223 0.73086,0.81531 0.50586,1.32031c-0.051,0.114 -1.28098,2.79492 -4.58398,2.79492c-3.303,0 -4.53298,-2.68092 -4.58398,-2.79492c-0.224,-0.505 0.00281,-1.09631 0.50781,-1.32031c0.12625,-0.05575 0.25733,-0.0833 0.38672,-0.08594z"></path></g></g></svg>